HIERARCHY
ROOT Hips
{
	OFFSET 0.000000 97.167313 0.000000
	CHANNELS 6 Xposition Yposition Zposition Xrotation Yrotation Zrotation
	JOINT Spine
	{
		OFFSET 0.000000 13.784798 0.064400
		CHANNELS 3 Xrotation Yrotation Zrotation
		JOINT Spine1
		{
			OFFSET 0.000000 12.037903 0.404700
			CHANNELS 3 Xrotation Yrotation Zrotation
			JOINT Spine2
			{
				OFFSET 0.000000 17.795601 0.420200
				CHANNELS 3 Xrotation Yrotation Zrotation
				JOINT Neck
				{
					OFFSET 0.000000 39.131302 11.954600
					CHANNELS 3 Xrotation Yrotation Zrotation
					JOINT Head
					{
						OFFSET 0.000000 14.456192 15.627699
						CHANNELS 3 Xrotation Yrotation Zrotation
						JOINT HeadTop_End
						{
							OFFSET 0.000000 15.703506 7.603401
							CHANNELS 3 Xrotation Yrotation Zrotation
							End Site
							{
								OFFSET 0.000000 17.447403 0.000000
							}
						}
					}
				}
				JOINT LeftShoulder
				{
					OFFSET 17.399500 24.608795 1.168800
					CHANNELS 3 Xrotation Yrotation Zrotation
					JOINT LeftArm
					{
						OFFSET 18.980635 5.765305 1.818600
						CHANNELS 3 Xrotation Yrotation Zrotation
						JOINT LeftForeArm
						{
							OFFSET 49.290169 0.000000 0.000000
							CHANNELS 3 Xrotation Yrotation Zrotation
							JOINT LeftHand
							{
								OFFSET 31.562012 0.000000 0.000000
								CHANNELS 3 Xrotation Yrotation Zrotation
								JOINT LeftHandThumb1
								{
									OFFSET 6.133995 -4.388519 7.076070
									CHANNELS 3 Xrotation Yrotation Zrotation
									JOINT LeftHandThumb2
									{
										OFFSET 6.037666 -3.485840 3.485847
										CHANNELS 3 Xrotation Yrotation Zrotation
										JOINT LeftHandThumb3
										{
											OFFSET 6.496506 -3.750763 3.750761
											CHANNELS 3 Xrotation Yrotation Zrotation
											JOINT LeftHandThumb4
											{
												OFFSET 5.616882 -3.242905 3.242910
												CHANNELS 3 Xrotation Yrotation Zrotation
												End Site
												{
													OFFSET -1.254608 7.132141 0.375429
												}
											}
										}
									}
								}
								JOINT LeftHandPinky1
								{
									OFFSET 18.920792 -0.453171 -11.426712
									CHANNELS 3 Xrotation Yrotation Zrotation
									JOINT LeftHandPinky2
									{
										OFFSET 4.919586 0.000000 0.000000
										CHANNELS 3 Xrotation Yrotation Zrotation
										JOINT LeftHandPinky3
										{
											OFFSET 5.233047 0.000000 0.000000
											CHANNELS 3 Xrotation Yrotation Zrotation
											JOINT LeftHandPinky4
											{
												OFFSET 5.571716 0.000000 0.000000
												CHANNELS 3 Xrotation Yrotation Zrotation
												End Site
												{
													OFFSET -3.459808 4.342407 -0.466164
												}
											}
										}
									}
								}
								JOINT LeftHandRing1
								{
									OFFSET 22.726120 -0.094986 -6.500475
									CHANNELS 3 Xrotation Yrotation Zrotation
									JOINT LeftHandRing2
									{
										OFFSET 6.408615 0.000000 0.000000
										CHANNELS 3 Xrotation Yrotation Zrotation
										JOINT LeftHandRing3
										{
											OFFSET 6.150223 0.000000 0.000000
											CHANNELS 3 Xrotation Yrotation Zrotation
											JOINT LeftHandRing4
											{
												OFFSET 6.145386 0.000000 0.000000
												CHANNELS 3 Xrotation Yrotation Zrotation
												End Site
												{
													OFFSET -3.671402 4.923981 -0.202372
												}
											}
										}
									}
								}
								JOINT LeftHandMiddle1
								{
									OFFSET 23.373947 0.000000 0.000001
									CHANNELS 3 Xrotation Yrotation Zrotation
									JOINT LeftHandMiddle2
									{
										OFFSET 6.996567 0.000000 0.000000
										CHANNELS 3 Xrotation Yrotation Zrotation
										JOINT LeftHandMiddle3
										{
											OFFSET 7.015945 0.000000 0.000000
											CHANNELS 3 Xrotation Yrotation Zrotation
											JOINT LeftHandMiddle4
											{
												OFFSET 7.721573 0.000000 0.000000
												CHANNELS 3 Xrotation Yrotation Zrotation
												End Site
												{
													OFFSET -4.651108 6.158463 0.251582
												}
											}
										}
									}
								}
								JOINT LeftHandIndex1
								{
									OFFSET 21.310577 -0.490082 6.209344
									CHANNELS 3 Xrotation Yrotation Zrotation
									JOINT LeftHandIndex2
									{
										OFFSET 7.536453 0.000000 0.000000
										CHANNELS 3 Xrotation Yrotation Zrotation
										JOINT LeftHandIndex3
										{
											OFFSET 7.512344 0.000000 0.000000
											CHANNELS 3 Xrotation Yrotation Zrotation
											JOINT LeftHandIndex4
											{
												OFFSET 10.212402 0.000000 0.000001
												CHANNELS 3 Xrotation Yrotation Zrotation
												End Site
												{
													OFFSET -5.180801 8.690506 1.388433
												}
											}
										}
									}
								}
							}
						}
					}
				}
				JOINT RightShoulder
				{
					OFFSET -17.399500 24.608795 1.168800
					CHANNELS 3 Xrotation Yrotation Zrotation
					JOINT RightArm
					{
						OFFSET -18.980635 5.765305 1.818600
						CHANNELS 3 Xrotation Yrotation Zrotation
						JOINT RightForeArm
						{
							OFFSET -49.290169 0.000000 0.000000
							CHANNELS 3 Xrotation Yrotation Zrotation
							JOINT RightHand
							{
								OFFSET -31.562012 0.000000 0.000000
								CHANNELS 3 Xrotation Yrotation Zrotation
								JOINT RightHandThumb1
								{
									OFFSET -6.133995 -4.388519 7.076070
									CHANNELS 3 Xrotation Yrotation Zrotation
									JOINT RightHandThumb2
									{
										OFFSET -6.037666 -3.485840 3.485847
										CHANNELS 3 Xrotation Yrotation Zrotation
										JOINT RightHandThumb3
										{
											OFFSET -6.496506 -3.750763 3.750761
											CHANNELS 3 Xrotation Yrotation Zrotation
											JOINT RightHandThumb4
											{
												OFFSET -5.616882 -3.242905 3.242910
												CHANNELS 3 Xrotation Yrotation Zrotation
												End Site
												{
													OFFSET 1.254608 7.132141 0.375429
												}
											}
										}
									}
								}
								JOINT RightHandIndex1
								{
									OFFSET -21.310577 -0.490082 6.209344
									CHANNELS 3 Xrotation Yrotation Zrotation
									JOINT RightHandIndex2
									{
										OFFSET -7.536453 0.000000 0.000000
										CHANNELS 3 Xrotation Yrotation Zrotation
										JOINT RightHandIndex3
										{
											OFFSET -7.512344 0.000000 0.000000
											CHANNELS 3 Xrotation Yrotation Zrotation
											JOINT RightHandIndex4
											{
												OFFSET -10.212402 0.000000 0.000001
												CHANNELS 3 Xrotation Yrotation Zrotation
												End Site
												{
													OFFSET 5.180801 8.690506 1.388433
												}
											}
										}
									}
								}
								JOINT RightHandMiddle1
								{
									OFFSET -23.373947 0.000000 0.000001
									CHANNELS 3 Xrotation Yrotation Zrotation
									JOINT RightHandMiddle2
									{
										OFFSET -6.996567 0.000000 0.000000
										CHANNELS 3 Xrotation Yrotation Zrotation
										JOINT RightHandMiddle3
										{
											OFFSET -7.015945 0.000000 0.000000
											CHANNELS 3 Xrotation Yrotation Zrotation
											JOINT RightHandMiddle4
											{
												OFFSET -7.721573 0.000000 0.000000
												CHANNELS 3 Xrotation Yrotation Zrotation
												End Site
												{
													OFFSET 4.651108 6.158463 0.251582
												}
											}
										}
									}
								}
								JOINT RightHandRing1
								{
									OFFSET -22.726120 -0.094986 -6.500475
									CHANNELS 3 Xrotation Yrotation Zrotation
									JOINT RightHandRing2
									{
										OFFSET -6.408615 0.000000 0.000000
										CHANNELS 3 Xrotation Yrotation Zrotation
										JOINT RightHandRing3
										{
											OFFSET -6.150223 0.000000 0.000000
											CHANNELS 3 Xrotation Yrotation Zrotation
											JOINT RightHandRing4
											{
												OFFSET -6.145386 0.000000 0.000000
												CHANNELS 3 Xrotation Yrotation Zrotation
												End Site
												{
													OFFSET 3.671402 4.923981 -0.202372
												}
											}
										}
									}
								}
								JOINT RightHandPinky1
								{
									OFFSET -18.920792 -0.453171 -11.426712
									CHANNELS 3 Xrotation Yrotation Zrotation
									JOINT RightHandPinky2
									{
										OFFSET -4.919586 0.000000 0.000000
										CHANNELS 3 Xrotation Yrotation Zrotation
										JOINT RightHandPinky3
										{
											OFFSET -5.233047 0.000000 0.000000
											CHANNELS 3 Xrotation Yrotation Zrotation
											JOINT RightHandPinky4
											{
												OFFSET -5.571716 0.000000 0.000000
												CHANNELS 3 Xrotation Yrotation Zrotation
												End Site
												{
													OFFSET 3.459808 4.342407 -0.466164
												}
											}
										}
									}
								}
							}
						}
					}
				}
			}
		}
	}
	JOINT LeftUpLeg
	{
		OFFSET 19.899099 -7.885101 -3.429500
		CHANNELS 3 Xrotation Yrotation Zrotation
		JOINT LeftLeg
		{
			OFFSET 1.745560 -36.997807 10.304700
			CHANNELS 3 Xrotation Yrotation Zrotation
			JOINT LeftFoot
			{
				OFFSET -1.745558 -29.803308 -13.615400
				CHANNELS 3 Xrotation Yrotation Zrotation
				JOINT LeftToeBase
				{
					OFFSET 1.181900 -18.539904 15.226099
					CHANNELS 3 Xrotation Yrotation Zrotation
					JOINT LeftToe_End
					{
						OFFSET -0.863701 1.402801 16.534700
						CHANNELS 3 Xrotation Yrotation Zrotation
						End Site
						{
							OFFSET 0.000000 16.616566 0.000000
						}
					}
				}
			}
		}
	}
	JOINT RightUpLeg
	{
		OFFSET -19.899099 -7.885101 -3.429500
		CHANNELS 3 Xrotation Yrotation Zrotation
		JOINT RightLeg
		{
			OFFSET -1.745560 -36.997807 10.304700
			CHANNELS 3 Xrotation Yrotation Zrotation
			JOINT RightFoot
			{
				OFFSET 1.745558 -29.803308 -13.615400
				CHANNELS 3 Xrotation Yrotation Zrotation
				JOINT RightToeBase
				{
					OFFSET -1.181900 -18.539904 15.226099
					CHANNELS 3 Xrotation Yrotation Zrotation
					JOINT RightToe_End
					{
						OFFSET 0.863701 1.402801 16.534700
						CHANNELS 3 Xrotation Yrotation Zrotation
						End Site
						{
							OFFSET 0.000000 16.616566 0.000000
						}
					}
				}
			}
		}
	}
}
MOTION
Frames: 4
Frame Time: 0.033333
-7.674408 87.016617 14.689988 -3.641029 -6.015487 8.803206 -1.338026 7.003192 7.266577 -3.134613 13.744830 10.134837 -3.394679 13.642386 10.231316 3.889468 -8.405007 1.551229 0.159584 -36.857886 -5.055074 -0.000000 -0.000000 0.000000 4.624050 -29.093618 19.919972 -13.381884 14.350046 -58.281833 -0.000022 -126.764049 -0.000044 -18.351702 0.959793 51.950275 3.397471 -4.321872 0.635990 17.638788 28.390439 -3.760255 2.116715 -2.550037 21.387373 0.000000 0.000001 -0.000001 7.795929 7.909864 -104.417241 3.205283 5.220545 -63.075568 3.205290 5.220550 -63.075684 0.000002 0.000000 -0.000002 10.084663 8.001592 -92.916343 5.453409 5.837571 -86.096153 5.448622 5.837248 -86.049203 -0.000000 -0.000001 0.000002 7.081596 8.710936 -75.055822 3.782852 5.474507 -69.266861 3.645029 5.420591 -67.815295 -0.000002 -0.000003 0.000006 7.448498 8.877168 -74.091536 3.396065 5.312734 -65.153837 3.387722 5.308872 -65.063665 -0.000000 -0.000000 -0.000001 0.396660 20.571013 3.830215 -75.789603 55.594912 75.181245 0.000073 78.762081 -0.000091 -32.085281 -4.102204 -15.400886 5.047353 -3.241619 4.027525 16.773717 -36.503570 8.499276 -11.435112 23.421885 -20.071865 -0.000004 -0.000001 0.000001 5.971321 -7.534522 72.876582 4.650398 -4.657170 89.916408 2.011064 -3.833765 55.347403 0.000000 -0.000004 0.000004 4.597035 -7.023002 100.008388 2.816579 -4.278759 66.697583 1.768067 -3.654263 51.627030 -0.000001 -0.000001 -0.000002 1.204122 -7.448250 97.667225 2.286688 -4.009873 59.375101 0.100241 -0.962041 11.896235 -0.000001 0.000004 -0.000001 4.854276 -16.611937 84.885038 1.335660 -3.266312 44.472287 1.343452 -3.274217 44.609028 -0.000005 -0.000002 -0.000001 -18.743683 4.241346 -23.500553 22.518627 -9.916120 6.969808 8.298042 -29.468301 8.343193 -2.806392 0.000005 0.000001 0.000000 0.000003 -0.000000 11.583367 -36.343017 -18.575427 29.839252 -6.159216 -9.011064 0.160446 -25.446821 18.678725 -23.634893 -0.073845 2.753250 -0.000001 -0.000000 -0.000001 
-7.742678 87.030411 14.654116 -3.453251 -5.767542 8.715191 -1.335108 6.978497 7.147795 -3.111441 13.669168 9.938169 -3.367188 13.570489 10.029720 3.748182 -8.330557 1.456444 -0.096525 -36.527794 -5.224272 -0.000000 0.000000 0.000001 4.438090 -29.109190 19.543073 -12.273594 14.794388 -58.542904 -0.000005 -128.654276 -0.000028 -15.665522 0.479406 51.234724 3.946885 -3.810511 0.512251 17.811371 28.129321 -4.014642 2.105989 -2.577886 21.597316 -0.000001 -0.000000 -0.000002 7.925845 7.876373 -104.459233 3.299551 5.267176 -64.107124 3.299561 5.267191 -64.107281 0.000000 0.000001 -0.000000 10.331857 7.977813 -93.082870 5.447124 5.837155 -86.034442 5.441969 5.836785 -85.983687 0.000001 -0.000003 0.000003 7.480942 8.798375 -75.390248 3.761983 5.466639 -69.048110 3.645060 5.420613 -67.815739 -0.000003 -0.000002 0.000009 7.727713 8.942689 -74.333017 3.394549 5.312050 -65.137438 3.384874 5.307564 -65.032813 -0.000001 0.000002 -0.000001 0.447223 20.550706 3.565565 -73.637902 55.207015 73.608484 0.000212 82.535692 -0.000204 -29.801174 -1.983277 -15.003708 5.073108 -3.319605 4.046255 16.771895 -36.511469 8.490717 -11.409665 23.431784 -20.079131 -0.000001 -0.000001 0.000002 5.965645 -7.546105 72.611249 4.658413 -4.657160 90.015275 2.011085 -3.833776 55.347393 -0.000000 -0.000001 -0.000001 4.620086 -7.016300 99.842558 2.815308 -4.278215 66.680678 1.768060 -3.654261 51.627033 -0.000001 0.000003 -0.000001 1.192668 -7.442957 97.573596 2.289009 -4.011242 59.408405 0.100234 -0.962052 11.896217 0.000001 0.000000 -0.000005 4.778660 -16.566938 84.773747 1.325738 -3.256181 44.298018 1.333464 -3.264088 44.433837 -0.000001 0.000002 0.000004 -18.940936 4.390240 -23.343771 22.673650 -9.892709 7.166573 8.123790 -29.503965 8.200399 -2.619852 -0.000002 -0.000003 0.000000 -0.000000 0.000000 11.757550 -36.421960 -18.042517 29.595179 -6.239463 -9.051614 0.329625 -25.868117 18.752184 -23.704872 -0.052812 2.309135 0.000000 0.000000 -0.000000 
-7.789596 87.038269 14.590918 -3.323142 -5.508075 8.663389 -1.311840 6.935522 7.054836 -3.045513 13.568614 9.766140 -3.296908 13.475167 9.852752 3.603557 -8.247515 1.364859 -0.415105 -36.116333 -5.531187 -0.000000 -0.000000 0.000000 4.254282 -29.090121 19.193996 -11.117045 14.916553 -58.781646 -0.000035 -130.247363 -0.000047 -13.534609 0.032094 50.525614 4.355834 -3.467713 0.428657 18.021468 28.038307 -4.246223 2.098959 -2.586871 21.742135 0.000001 0.000002 -0.000001 8.051120 7.843688 -104.517167 3.402872 5.315878 -65.227384 3.402926 5.315900 -65.227685 -0.000000 0.000001 -0.000004 10.543837 7.951887 -93.285665 5.435403 5.836339 -85.919142 5.429912 5.835925 -85.865204 0.000001 -0.000001 0.000005 7.818103 8.860161 -75.810353 3.730245 5.454435 -68.714326 3.645108 5.420613 -67.816101 -0.000002 -0.000001 0.000006 7.925281 8.989084 -74.488499 3.385878 5.308026 -65.043707 3.375162 5.303044 -64.927888 -0.000003 0.000001 -0.000001 0.451831 20.569041 3.535127 -71.369767 54.861729 72.011955 0.000869 85.862356 -0.000842 -27.679157 -0.246941 -14.660231 4.925628 -3.376748 3.873126 16.783660 -36.486772 8.529361 -11.366622 23.409503 -20.185955 0.000001 0.000000 0.000003 5.962522 -7.559253 72.332701 4.653667 -4.657182 89.956802 2.011083 -3.833774 55.347413 -0.000005 0.000004 0.000001 4.643450 -7.011197 99.773115 2.812971 -4.277204 66.649280 1.768059 -3.654260 51.627030 -0.000002 0.000006 -0.000008 1.186235 -7.441975 97.548297 2.287300 -4.010249 59.384103 0.100230 -0.962057 11.896215 -0.000000 0.000001 -0.000005 4.704430 -16.449734 84.979356 1.317676 -3.247919 44.155899 1.325239 -3.255698 44.289214 -0.000000 -0.000004 0.000002 -19.111995 4.457834 -23.290202 22.761312 -9.884705 7.386677 8.022012 -29.533260 8.026481 -2.365111 -0.000011 -0.000000 -0.000000 -0.000004 -0.000000 11.996958 -36.396087 -17.563128 29.388480 -6.298369 -9.081981 0.365935 -26.185333 18.808077 -23.766739 -0.039352 1.975948 0.000001 0.000002 -0.000001 
-7.835497 87.047585 14.501383 -3.237253 -5.321598 8.640294 -1.275362 6.887926 6.976727 -2.958798 13.461808 9.632993 -3.205867 13.372544 9.716375 3.529160 -8.148989 1.295718 -0.807735 -35.578841 -5.989922 -0.000000 0.000000 0.000001 4.154850 -29.080808 19.008072 -9.753670 14.808963 -59.048392 -0.000018 -131.551779 -0.000043 -11.982805 -0.410087 49.944362 4.603505 -3.167874 0.412924 18.248163 28.002498 -4.437952 2.093855 -2.589802 21.849268 -0.000002 0.000002 -0.000001 8.135652 7.821690 -104.542841 3.480659 5.350938 -66.064192 3.480708 5.350967 -66.064527 -0.000000 0.000002 0.000001 10.677484 7.931013 -93.463147 5.426696 5.835693 -85.833553 5.420997 5.835293 -85.777621 -0.000000 -0.000003 0.000001 8.072999 8.897237 -76.228722 3.700336 5.442737 -68.399645 3.645141 5.420651 -67.816409 0.000001 -0.000003 0.000009 8.132214 9.038687 -74.620384 3.382943 5.306659 -65.012022 3.371076 5.301146 -64.883799 -0.000002 0.000001 0.000003 0.436542 20.568013 3.617424 -69.013297 54.612567 70.380455 -0.000942 88.674843 0.001152 -25.980189 1.227718 -14.506673 4.851572 -3.403070 3.785405 16.810988 -36.492372 8.578432 -11.385754 23.482672 -20.260639 0.000003 -0.000001 0.000001 5.958971 -7.572292 72.056351 4.658245 -4.657179 90.013069 2.011067 -3.833776 55.347390 -0.000004 0.000001 -0.000001 4.661473 -7.006646 99.674658 2.809507 -4.275727 66.602841 1.768070 -3.654258 51.627023 0.000001 0.000002 -0.000004 1.167131 -7.435996 97.431685 2.291054 -4.012447 59.437549 0.100237 -0.962048 11.896229 -0.000001 -0.000003 -0.000002 4.633567 -16.428106 84.783534 1.315909 -3.246102 44.124596 1.323453 -3.253828 44.257464 -0.000001 -0.000001 0.000004 -19.246385 4.497297 -23.259892 22.776511 -9.882118 7.560774 7.982016 -29.553614 7.852780 -2.116823 -0.000003 -0.000002 0.000000 0.000005 0.000000 12.117392 -36.280691 -17.297937 29.311781 -6.314451 -9.089981 0.391236 -26.257506 18.873513 -23.880986 -0.037426 1.922641 0.000000 0.000001 0.000000 
